# xmcd
#
# Track frame offsets: 
#        183
#        14248
#        34973
#        52748
#        81995
#        100653
#        119610
#        148898
#        164785
#        187290
#
# Disc length: 2704 seconds
#
# Revision: 1
# Processed by: cddbd v1.5.2PL0 Copyright (c) Steve Scherf et al.
# Submitted via: ExactAudioCopy v1.0b4
#
DISCID=980a8e0a
DTITLE=Katie Webster - No foolin'!
DYEAR=1991
DGENRE=Blues
TTITLE0=A little meat on the side
TTITLE1=I'm bad
TTITLE2=No depost, no return
TTITLE3=Zydeco shoes and California blues
TTITLE4=Too much sugar for a dime
TTITLE5=Hard lovin' mama
TTITLE6=It's mighty hard
TTITLE7=Tangled in your web
TTITLE8=Those lonely, lonely nights
TTITLE9=Mama cat cuttin' no slack
EXTD=
EXTT0=
EXTT1=
EXTT2=
EXTT3=
EXTT4=
EXTT5=
EXTT6=
EXTT7=
EXTT8=
EXTT9=
PLAYORDER=
